# xmcd
#
# Track frame offsets:
#	182
#	19740
#	37290
#	52365
#	64590
#	79590
#	94440
#	108165
#	122490
#	139065
#	154215
#	173565
#	188490
#	200265
#	221415
#	235965
#	251715
#	273540
#	287790
#	305790
#	327165
#
# Disc length: 4579 seconds
#
# Revision: 1
# Processed by: cddbd v1.4PL0 Copyright (c) Steve Scherf et al.
# Submitted via: audiograbber 1.82.02
#
DISCID=3711e115
DTITLE=Various Artist - Taking The World To Outback Kids 97 Muster
DYEAR=1900
DGENRE=
TTITLE0=Lee Kernaghan - Freedom Road
TTITLE1=Black Sorrows - Harley and Rose
TTITLE2=Tania Kernaghan - The Verandah
TTITLE3=Dead Ringer Bang - Am I The Only One
TTITLE4=Kylie Harris - Do You Need Me Know
TTITLE5=Hot Diggety - Family Band
TTITLE6=Nicki Gillis - Home Soon
TTITLE7=Runaway Train - Match Made In Heaven
TTITLE8=Beccy Cole - Big Girls
TTITLE9=TJ Dennis - My Way... Or No Way At All
TTITLE10=Fiddle Me Please - Homeward Bound
TTITLE11=Lyn Bowtell - The One You Love
TTITLE12=Cam Fletcher - Kickin' Up Dirt
TTITLE13=Lyndsay Hammond - Red Dust Trails
TTITLE14=Wayne Law - Harry Chambers
TTITLE15=Vanya - Good Times Go
TTITLE16=Hard Road - Lost Highway
TTITLE17=Texas Rose - Mercedes Benz
TTITLE18=John Wibberley - Musta Been The Fire
TTITLE19=The Bushwackers - Battler's Ballad
TTITLE20=The Wolverines - Saddle Up
EXTD=
EXTT0=
EXTT1=
EXTT2=
EXTT3=
EXTT4=
EXTT5=
EXTT6=
EXTT7=
EXTT8=
EXTT9=
EXTT10=
EXTT11=
EXTT12=
EXTT13=
EXTT14=
EXTT15=
EXTT16=
EXTT17=
EXTT18=
EXTT19=
EXTT20=
PLAYORDER=
